<?xml version="1.0" encoding="UTF-8"?>
<svg width="1997px" height="437px" viewBox="0 0 1997 437" version="1.1" xmlns="http://www.w3.org/2000/svg" xmlns:xlink="http://www.w3.org/1999/xlink">
    <!-- Generator: Sketch 52.5 (67469) - http://www.bohemiancoding.com/sketch -->
    <title>babylist</title>
    <desc>Created with Sketch.</desc>
    <defs>
        <path d="M0.280373832,99.6163967 L0.280373832,84.0411126 C2.20101823,58.1939364 14.0429856,36.3573054 36.9766355,19.8411215 C66.6542056,-1.53271028 99.0841121,-3.63084112 132.285047,11.728972 C153.065421,21.3411215 166.46729,37.5420561 175.766355,57.3271028 L175.82243,57.3271028 C185.121495,37.5420561 198.523364,21.3411215 219.303738,11.728972 C252.504673,-3.63084112 284.934579,-1.53271028 314.61215,19.8411215 C343.873832,40.911215 355.074766,70.6401869 350.658879,106.308411 C344.953271,152.415888 319.546729,187.285047 286.514019,217.542056 C253.700935,247.607477 215.929907,270.168224 175.799065,288.96729 L175.78972,288.96729 C135.654206,270.168224 97.8878505,247.607477 65.0747664,217.542056 C32.0420561,187.285047 6.63551402,152.415888 0.929906542,106.308411 C0.650772925,104.053779 0.434057446,101.822879 0.28037383,99.6163967 Z" id="path-1"></path>
        <linearGradient x1="8.79316399%" y1="78.3701883%" x2="8.79316399%" y2="12.9975955%" id="linearGradient-3">
            <stop stop-color="#FF3A40" offset="0%"></stop>
            <stop stop-color="#FF79AB" offset="100%"></stop>
        </linearGradient>
    </defs>
    <g id="Page-1" stroke="none" stroke-width="1" fill="none" fill-rule="evenodd">
        <g id="babylist">
            <path d="M1759.28505,202.752336 L1723.8972,194.481308 C1702.50467,189.345794 1692.11215,179.065421 1692.11215,163.037383 C1692.11215,145.088785 1708.23364,133.023364 1732.23364,133.023364 C1763.51402,133.023364 1781.91589,152.228972 1790.76168,161.457944 L1792.00467,162.752336 L1817.32243,135.911215 L1816.20561,134.742991 C1792.78037,110.299065 1765.30374,97.9018692 1734.53738,97.9018692 C1713.51402,97.9018692 1693.94393,103.901869 1679.44393,114.794393 C1663.24766,126.953271 1654.68692,144.116822 1654.68692,164.420561 C1654.68692,198.714953 1676.47664,221.079439 1719.44393,230.88785 L1752.99065,238.700935 C1774.68224,243.808411 1786.15421,254.518692 1786.15421,269.682243 C1786.15421,290.205607 1767.88318,302.457944 1737.29439,302.457944 C1712.47196,302.457944 1687.53738,289.808411 1670.58879,268.621495 L1669.3785,267.102804 L1644.49533,293.004673 L1645.39252,294.163551 C1661.39252,314.929907 1694.06075,337.116822 1737.74766,337.116822 C1762.97196,337.116822 1784.50467,330.425234 1800.01869,317.771028 C1815.42523,305.205607 1823.57009,287.939252 1823.57009,267.845794 C1823.57009,234.457944 1801.93925,212.556075 1759.28505,202.752336 M1617.29439,36.728972 C1617.29439,51.3317757 1605.45794,63.1682243 1590.85514,63.1682243 C1576.25701,63.1682243 1564.41589,51.3317757 1564.41589,36.728972 C1564.41589,22.1261682 1576.25701,10.2897196 1590.85514,10.2897196 C1605.45794,10.2897196 1617.29439,22.1261682 1617.29439,36.728972 M1609.85514,109.485981 L1609.85514,327.556075 L1572.04206,327.556075 L1572.04206,109.453271 L1609.85514,109.485981 M1488.38318,327.551402 L1526.19626,327.551402 L1526.19626,0.934579439 L1488.38318,0.934579439 L1488.38318,327.551402 Z M587.420561,301.64486 C540.836449,301.570093 503.299065,263.817757 503.420561,217.149533 C503.537383,170.939252 541.313084,133.392523 587.649533,133.420561 C634.172897,133.453271 671.808411,171.327103 671.64486,217.948598 C671.481308,264.271028 633.799065,301.719626 587.420561,301.64486 Z M507.672897,327.411215 C507.686916,327.439252 507.621495,306.574766 507.598131,306.654206 C559.154206,351.098131 629.640187,344.191589 671.327103,302.649533 C713.397196,260.724299 718.686916,194.448598 683.415888,146.542056 C665.850467,122.686916 642.457944,107.11215 613.53271,100.883178 C574.21028,92.4158879 539.070093,102.107477 507.598131,128.504673 L507.691589,0.976635514 L469.247664,0.976635514 C469.341121,106.149533 469.313084,222.233645 469.247664,327.411215 L507.672897,327.411215 Z M1114.93458,301.64486 C1068.34579,301.570093 1030.81308,263.817757 1030.92991,217.149533 C1031.0514,170.939252 1068.8271,133.392523 1115.16355,133.420561 C1161.68692,133.453271 1199.32243,171.327103 1199.15421,217.948598 C1198.99065,264.271028 1161.30841,301.719626 1114.93458,301.64486 Z M1035.18692,327.411215 C1035.20093,327.439252 1035.13551,306.574766 1035.11215,306.654206 C1086.66822,351.098131 1157.15421,344.191589 1198.84112,302.649533 C1240.91121,260.724299 1246.20093,194.448598 1210.92991,146.542056 C1193.36449,122.686916 1169.97196,107.11215 1141.04673,100.883178 C1101.7243,92.4158879 1066.57944,102.107477 1035.11215,128.504673 L1035.20093,0.976635514 L996.831776,0.976635514 C996.929907,106.149533 996.901869,222.233645 996.831776,327.411215 L1035.18692,327.411215 Z M844.588785,301.64486 C891.17757,301.570093 928.71028,263.817757 928.588785,217.149533 C928.476636,170.939252 890.700935,133.392523 844.364486,133.420561 C797.836449,133.453271 760.200935,171.327103 760.364486,217.948598 C760.53271,264.271028 798.214953,301.719626 844.588785,301.64486 Z M924.336449,327.411215 C924.32243,327.439252 924.392523,306.574766 924.411215,306.654206 C872.85514,351.098131 802.369159,344.191589 760.682243,302.649533 C718.61215,260.724299 713.32243,194.448598 748.593458,146.542056 C766.158879,122.686916 789.551402,107.11215 818.476636,100.883178 C857.799065,92.4158879 892.939252,102.107477 924.411215,128.504673 L924.317757,109.64486 L962.850467,109.649533 C962.752336,214.82243 962.780374,222.233645 962.850467,327.411215 L924.336449,327.411215 Z M1268.62617,436.252336 L1325.05607,316.107477 C1294.83178,251.093458 1259.7243,174.962617 1229.68224,109.859813 L1270.98131,109.859813 C1288.48598,148.523364 1307.74299,191.11215 1325.22897,229.785047 C1331.91121,244.560748 1338.64019,259.317757 1345.88318,275.266355 C1356.70093,251.257009 1367.02336,228.415888 1377.29907,205.560748 C1390.85514,175.420561 1406.7243,140.084112 1420.08879,109.859813 L1462.01869,109.859813 C1456.07477,122.799065 1450.45794,135.163551 1444.78505,147.425234 C1403.82243,235.929907 1351.57009,347.682243 1310.74299,436.252336 L1268.62617,436.252336 Z M1996.24299,332.037383 C1974.77103,337.742991 1950.36449,340.107477 1929.47196,331.233645 C1905.99533,321.257009 1895.07944,302.056075 1893.3785,277.509346 C1892.33178,262.415888 1892.83178,247.219626 1892.79439,232.060748 C1892.71963,204.929907 1892.68224,172.401869 1892.86449,145.271028 L1844.92056,145.257009 L1844.92056,109.285047 C1857.82243,109.546729 1879.9486,109.266355 1892.85981,109.462617 L1892.83645,69.0747664 C1904.84579,63.1308411 1918.84112,56.1728972 1931.60748,49.7476636 L1931.57477,109.476636 L1996.24299,109.462617 C1996.3271,109.504673 1996.3271,145.439252 1996.24299,145.271028 L1931.48131,145.271028 C1931.69626,182.878505 1931.58879,225.373832 1931.63084,262.981308 C1931.63551,266.518692 1931.78972,270.102804 1932.33645,273.598131 C1935.18224,291.859813 1944.63084,300.341121 1963.1729,301.448598 C1972.96262,302.03271 1986.80841,300.14486 1996.2243,297.373832 L1996.24299,332.037383 Z" id="bayblist" fill="#6F3264"></path>
            <g id="Group-14" transform="translate(0.000000, 48.401869)">
                <g id="Fill-12-Clipped">
                    <mask id="mask-2" fill="white">
                        <use xlink:href="#path-1"></use>
                    </mask>
                    <g id="path-1"></g>
                    <polygon id="Fill-12" fill="url(#linearGradient-3)" mask="url(#mask-2)" points="0.280373832 387.850467 1996.30841 387.850467 1996.30841 -47.4672897 0.280373832 -47.4672897"></polygon>
                </g>
                <path d="M91.6775701,1.74299065 C91.6775701,1.74299065 20.5654206,45.2056075 45.0560748,112.369159 C69.5514019,179.53271 164.369159,143.182243 164.369159,143.182243 L164.285047,143.154206 C164.285047,143.154206 259.107477,106.808411 283.598131,173.971963 C289.266355,189.504673 289.813084,203.775701 287.313084,216.53271 L287.364486,216.761682 C319.981308,186.682243 345,152.018692 350.658879,106.308411 C355.074766,70.6401869 343.873832,40.911215 314.61215,19.8411215 C284.934579,-1.53271028 252.504673,-3.63084112 219.303738,11.728972 C198.523364,21.3411215 185.121495,37.5420561 175.82243,57.3271028 L175.766355,57.3271028 C166.46729,37.5420561 153.065421,21.3411215 132.285047,11.728972 C118.38785,5.29906542 104.626168,1.92990654 91.1448598,1.75233645 L91.6775701,1.74299065" id="Fill-15" fill="#FF7BAC"></path>
            </g>
        </g>
    </g>
</svg>